<?xml version="1.0" encoding="UTF-8"?>
<svg version="1.1" xmlns="http://www.w3.org/2000/svg" width="256" height="256">
<path d="M0 0 C0.82371094 0.63035156 1.64742187 1.26070312 2.49609375 1.91015625 C18.43715867 15.21510123 27.88109784 36.15573903 34.58618164 55.26782227 C40.48994742 72.04792626 49.90556856 85.06079065 61.1953125 98.640625 C78.58501261 119.78104474 78.58501261 119.78104474 78.25 131.875 C78.23453125 132.82117188 78.2190625 133.76734375 78.203125 134.7421875 C78 137 78 137 77 138 C72.24589041 138.75462057 69.53481171 138.98749646 65.42578125 136.34375 C60.26097212 131.85123608 56.29187176 126.92631699 52.5234375 121.23828125 C49.65574766 117.0249831 47.14327089 114.05031006 42 113 C42.144375 113.57105469 42.28875 114.14210937 42.4375 114.73046875 C47.43428533 136.55670467 39.10575861 156.74447369 27.62792969 175.20703125 C20.69861371 185.41434836 12.92362607 193.17571505 1 197 C-3.62591351 197.85393973 -8.23364738 198.36399932 -12.91503906 198.79394531 C-15.64051944 199.06330192 -18.3491577 199.42814895 -21.06298828 199.79467773 C-32.98117283 201.39104507 -44.97091296 202.35528949 -57 202 C-58.02996094 201.98324219 -59.05992188 201.96648437 -60.12109375 201.94921875 C-79.07820536 201.18216799 -96.86245114 195.52730795 -110.68359375 182.2109375 C-113.03920688 179.89184409 -113.03920688 179.89184409 -115.9921875 177.6484375 C-119.2759143 174.93867215 -121.45149475 171.8449821 -123.6875 168.25 C-124.07905273 167.63600342 -124.47060547 167.02200684 -124.87402344 166.3894043 C-127.42036514 162.27828063 -129.0721815 158.35664066 -130.3203125 153.671875 C-130.92403058 151.68239596 -130.92403058 151.68239596 -133.625 150.5625 C-134.40875 150.046875 -135.1925 149.53125 -136 149 C-136.41866051 146.55484445 -136.49993691 144.24498467 -136.46875 141.765625 C-137.09918218 138.48366925 -138.64635466 136.5762551 -140.64550781 133.95458984 C-143.05759364 130.47384739 -144.54121735 126.59707372 -146.125 122.6875 C-146.47046875 121.84445313 -146.8159375 121.00140625 -147.171875 120.1328125 C-152.79157172 106.2551645 -155.30449005 95.96370348 -149.6640625 81.46875 C-146.8908091 75.68788376 -143.08694128 70.89805572 -139 66 C-127.67484245 52.33446211 -119.46628499 38.78559752 -112.67529297 22.34570312 C-105.59162244 5.40102528 -96.40572564 -5.92399278 -79.640625 -13.9375 C-52.53557917 -24.84367229 -22.05620611 -18.22758166 0 0 Z " fill="#1A1A1A" transform="translate(164,34)"/>
<path d="M0 0 C0.82371094 0.63035156 1.64742187 1.26070312 2.49609375 1.91015625 C18.43715867 15.21510123 27.88109784 36.15573903 34.58618164 55.26782227 C40.48994742 72.04792626 49.90556856 85.06079065 61.1953125 98.640625 C78.58501261 119.78104474 78.58501261 119.78104474 78.25 131.875 C78.23453125 132.82117188 78.2190625 133.76734375 78.203125 134.7421875 C78 137 78 137 77 138 C72.24589041 138.75462057 69.53481171 138.98749646 65.42578125 136.34375 C60.26097212 131.85123608 56.29187176 126.92631699 52.5234375 121.23828125 C49.65574766 117.0249831 47.14327089 114.05031006 42 113 C42.144375 113.57105469 42.28875 114.14210937 42.4375 114.73046875 C47.43428533 136.55670467 39.10575861 156.74447369 27.62792969 175.20703125 C20.14472443 186.23026202 11.85440763 193.64080228 -1.01953125 197.625 C-3.37462413 198.07093475 -5.60323819 198.169232 -8 198.1875 C-8.845625 198.20167969 -9.69125 198.21585938 -10.5625 198.23046875 C-13.15408616 197.98543096 -14.77024992 197.30584901 -17 196 C-16.34 195.67 -15.68 195.34 -15 195 C-15.33 194.67 -15.66 194.34 -16 194 C-16 188.2745624 -14.28034852 185.33383959 -10.390625 181.21484375 C-6.4408574 177.55550024 -2.20148456 174.29459859 2.07421875 171.03125 C7.10975209 167.18047253 11.97904577 163.12501836 16.84545898 159.0637207 C17.48942627 158.53351318 18.13339355 158.00330566 18.796875 157.45703125 C19.36760742 156.98241455 19.93833984 156.50779785 20.52636719 156.01879883 C22 155 22 155 24 155 C24.93384523 166.72494563 21.51587606 176.08831839 14 185 C13.34 185.99 12.68 186.98 12 188 C25.33441727 176.26145714 38.86796865 153.20117328 40.13476562 135.07128906 C40.85253375 121.77314396 40.85253375 121.77314396 38 109 C36.01290003 107.67706133 36.01290003 107.67706133 34 107 C44.64236124 109.01022379 50.21213674 112.48218455 57 121 C57.680625 122.03125 58.36125 123.0625 59.0625 124.125 C61.85994076 128.27604113 65.07494788 133.03257031 70.0078125 134.6640625 C72.1182137 135.00249804 72.1182137 135.00249804 75 135 C74.72239097 118.89867636 63.03402891 105.84698189 53.0625 94.25 C42.12869254 81.21092526 35.16250657 66.71645592 29.0390625 50.96875 C23.38401076 36.45633913 16.67822226 24.29978153 7 12 C6.52175781 11.35417969 6.04351562 10.70835938 5.55078125 10.04296875 C-5.83162048 -4.55248332 -24.05107313 -12.53435965 -42 -15 C-59.9831213 -16.66098369 -77.90645638 -13.41078715 -92.40625 -2.23046875 C-103.26527904 7.10764207 -108.45692568 20.30479705 -113.7734375 33.29296875 C-118.76963352 45.43366679 -125.63157562 55.10784132 -134.125 65.0625 C-142.49614064 74.97603978 -150.60448047 86.13798835 -150.0625 99.6875 C-148.50135661 110.20030599 -143.48294289 120.35997387 -138.9375 129.875 C-138.62159912 130.55900879 -138.30569824 131.24301758 -137.98022461 131.94775391 C-136.41900227 135.09259891 -135.40399332 136.78737194 -132.25390625 138.4453125 C-131.13822266 138.71988281 -131.13822266 138.71988281 -130 139 C-129.76925781 137.92363281 -129.53851563 136.84726563 -129.30078125 135.73828125 C-123.83330677 110.97099186 -123.83330677 110.97099186 -118 106 C-118 106.66 -118 107.32 -118 108 C-116.98631348 107.99214478 -116.98631348 107.99214478 -115.95214844 107.98413086 C-112.88477511 107.96331993 -109.81741667 107.95032671 -106.75 107.9375 C-105.15478516 107.92493164 -105.15478516 107.92493164 -103.52734375 107.91210938 C-102.50253906 107.90888672 -101.47773437 107.90566406 -100.421875 107.90234375 C-99.47924805 107.89710693 -98.53662109 107.89187012 -97.56542969 107.88647461 C-95.21876563 107.99031918 -93.24355522 108.33293471 -91 109 C-91.2475 107.453125 -91.2475 107.453125 -91.5 105.875 C-92.72787729 95.38223043 -93.47714677 85.88202799 -87 77 C-81.55464782 70.34768832 -73.56809378 66.970326 -66.06640625 63.14453125 C-62.87933237 61.50191207 -59.92689867 59.70531775 -57 57.625 C-47.04037929 50.82835902 -34.14043308 49.85840744 -22.37890625 51.5078125 C-9.64829461 54.52755808 -9.64829461 54.52755808 -6 60 C-3.47388141 61.3295361 -0.96354331 62.55701663 1.625 63.75 C10.36826547 67.96321208 18.26291956 72.49931406 22 82 C22.50587298 85.24966866 22.47682873 88.40593682 22.375 91.6875 C22.35703369 92.58033691 22.33906738 93.47317383 22.32055664 94.39306641 C21.48265734 124.65084655 7.12290202 159.27833784 -13.99609375 181.05859375 C-21.19825524 187.79703458 -30.12606665 192.52301384 -40.109375 192.40625 C-50.71008546 190.91642042 -58.15985763 184.07723521 -64.328125 175.921875 C-71.94138796 165.32469699 -77.87179235 153.38462294 -82 141 C-84.32013056 139.99888863 -84.32013056 139.99888863 -87.125 139.375 C-88.05570312 139.13523438 -88.98640625 138.89546875 -89.9453125 138.6484375 C-98.66806039 136.79680559 -110.47914204 134.92927462 -118.67578125 139.48828125 C-120.64864402 141.22336019 -122.31629154 142.98705152 -124 145 C-125.32508493 146.34153102 -126.65648345 147.67692826 -128 149 C-122.8794305 167.22413867 -112.89084222 177.21697632 -98 188 C-98.60585937 187.2678125 -99.21171875 186.535625 -99.8359375 185.78125 C-101.68730074 183.40188064 -103.18576642 181.13704733 -104.625 178.5 C-105.02976563 177.7678125 -105.43453125 177.035625 -105.8515625 176.28125 C-108.2716301 171.4740409 -109.29720064 167.59618946 -109.625 162.1875 C-109.69976562 161.02605469 -109.77453125 159.86460937 -109.8515625 158.66796875 C-109.90054688 157.78753906 -109.94953125 156.90710938 -110 156 C-105.74659138 156 -103.59018547 158.42213679 -100.4375 161 C-99.81198242 161.50257324 -99.18646484 162.00514648 -98.54199219 162.52294922 C-97.27752533 163.53951317 -96.01529148 164.5588613 -94.75537109 165.58105469 C-92.43923446 167.45329198 -90.09218344 169.28551094 -87.75 171.125 C-72.03942125 183.77642315 -72.03942125 183.77642315 -69 190 C-69.07967205 192.78852185 -69.71310569 193.67867838 -71.5625 195.75 C-72.2740625 196.36875 -72.2740625 196.36875 -73 197 C-68.3746152 197.73879967 -63.93632408 198.12812774 -59.25390625 198.1328125 C-58.00416016 198.13410156 -56.75441406 198.13539063 -55.46679688 198.13671875 C-54.17837891 198.13285156 -52.88996094 198.12898437 -51.5625 198.125 C-50.27794922 198.12886719 -48.99339844 198.13273438 -47.66992188 198.13671875 C-41.33891368 198.1301953 -35.26101266 197.91365456 -29 197 C-27.06436466 196.8945091 -25.12595821 196.82636594 -23.1875 196.8125 C-22.27355469 196.79832031 -21.35960937 196.78414062 -20.41796875 196.76953125 C-18 197 -18 197 -15 199 C-28.95144377 200.88830317 -42.89409864 202.41663 -57 202 C-58.02996094 201.98324219 -59.05992188 201.96648437 -60.12109375 201.94921875 C-79.07820536 201.18216799 -96.86245114 195.52730795 -110.68359375 182.2109375 C-113.03920688 179.89184409 -113.03920688 179.89184409 -115.9921875 177.6484375 C-119.2759143 174.93867215 -121.45149475 171.8449821 -123.6875 168.25 C-124.07905273 167.63600342 -124.47060547 167.02200684 -124.87402344 166.3894043 C-127.42036514 162.27828063 -129.0721815 158.35664066 -130.3203125 153.671875 C-130.92403058 151.68239596 -130.92403058 151.68239596 -133.625 150.5625 C-134.40875 150.046875 -135.1925 149.53125 -136 149 C-136.41866051 146.55484445 -136.49993691 144.24498467 -136.46875 141.765625 C-137.09918218 138.48366925 -138.64635466 136.5762551 -140.64550781 133.95458984 C-143.05759364 130.47384739 -144.54121735 126.59707372 -146.125 122.6875 C-146.47046875 121.84445313 -146.8159375 121.00140625 -147.171875 120.1328125 C-152.79157172 106.2551645 -155.30449005 95.96370348 -149.6640625 81.46875 C-146.8908091 75.68788376 -143.08694128 70.89805572 -139 66 C-127.67484245 52.33446211 -119.46628499 38.78559752 -112.67529297 22.34570312 C-105.59162244 5.40102528 -96.40572564 -5.92399278 -79.640625 -13.9375 C-52.53557917 -24.84367229 -22.05620611 -18.22758166 0 0 Z " fill="#FDFDFD" transform="translate(164,34)"/>
<path d="M0 0 C0.82371094 0.63035156 1.64742187 1.26070312 2.49609375 1.91015625 C18.43715867 15.21510123 27.88109784 36.15573903 34.58618164 55.26782227 C40.48994742 72.04792626 49.90556856 85.06079065 61.1953125 98.640625 C78.58501261 119.78104474 78.58501261 119.78104474 78.25 131.875 C78.23453125 132.82117188 78.2190625 133.76734375 78.203125 134.7421875 C78 137 78 137 77 138 C72.24589041 138.75462057 69.53481171 138.98749646 65.42578125 136.34375 C60.26097212 131.85123608 56.29187176 126.92631699 52.5234375 121.23828125 C49.65574766 117.0249831 47.14327089 114.05031006 42 113 C42.144375 113.57105469 42.28875 114.14210937 42.4375 114.73046875 C47.43428533 136.55670467 39.10575861 156.74447369 27.62792969 175.20703125 C20.14472443 186.23026202 11.85440763 193.64080228 -1.01953125 197.625 C-3.37462413 198.07093475 -5.60323819 198.169232 -8 198.1875 C-8.845625 198.20167969 -9.69125 198.21585938 -10.5625 198.23046875 C-13.15408616 197.98543096 -14.77024992 197.30584901 -17 196 C-16.34 195.67 -15.68 195.34 -15 195 C-15.33 194.67 -15.66 194.34 -16 194 C-16 188.2745624 -14.28034852 185.33383959 -10.390625 181.21484375 C-6.4408574 177.55550024 -2.20148456 174.29459859 2.07421875 171.03125 C7.10975209 167.18047253 11.97904577 163.12501836 16.84545898 159.0637207 C17.48942627 158.53351318 18.13339355 158.00330566 18.796875 157.45703125 C19.36760742 156.98241455 19.93833984 156.50779785 20.52636719 156.01879883 C22 155 22 155 24 155 C24.93384523 166.72494563 21.51587606 176.08831839 14 185 C13.34 185.99 12.68 186.98 12 188 C25.33441727 176.26145714 38.86796865 153.20117328 40.13476562 135.07128906 C40.85253375 121.77314396 40.85253375 121.77314396 38 109 C36.01290003 107.67706133 36.01290003 107.67706133 34 107 C44.64236124 109.01022379 50.21213674 112.48218455 57 121 C57.680625 122.03125 58.36125 123.0625 59.0625 124.125 C61.85994076 128.27604113 65.07494788 133.03257031 70.0078125 134.6640625 C72.1182137 135.00249804 72.1182137 135.00249804 75 135 C74.72239097 118.89867636 63.03402891 105.84698189 53.0625 94.25 C42.12869254 81.21092526 35.16250657 66.71645592 29.0390625 50.96875 C23.38401076 36.45633913 16.67822226 24.29978153 7 12 C6.52175781 11.35417969 6.04351562 10.70835938 5.55078125 10.04296875 C-5.83162048 -4.55248332 -24.05107313 -12.53435965 -42 -15 C-59.9831213 -16.66098369 -77.90645638 -13.41078715 -92.40625 -2.23046875 C-103.26527904 7.10764207 -108.45692568 20.30479705 -113.7734375 33.29296875 C-118.76963352 45.43366679 -125.63157562 55.10784132 -134.125 65.0625 C-142.49614064 74.97603978 -150.60448047 86.13798835 -150.0625 99.6875 C-148.50135661 110.20030599 -143.48294289 120.35997387 -138.9375 129.875 C-138.62159912 130.55900879 -138.30569824 131.24301758 -137.98022461 131.94775391 C-136.41900227 135.09259891 -135.40399332 136.78737194 -132.25390625 138.4453125 C-131.13822266 138.71988281 -131.13822266 138.71988281 -130 139 C-129.76925781 137.92363281 -129.53851563 136.84726563 -129.30078125 135.73828125 C-123.83330677 110.97099186 -123.83330677 110.97099186 -118 106 C-118 106.66 -118 107.32 -118 108 C-116.98631348 107.99214478 -116.98631348 107.99214478 -115.95214844 107.98413086 C-112.88477511 107.96331993 -109.81741667 107.95032671 -106.75 107.9375 C-105.15478516 107.92493164 -105.15478516 107.92493164 -103.52734375 107.91210938 C-102.50253906 107.90888672 -101.47773437 107.90566406 -100.421875 107.90234375 C-99.47924805 107.89710693 -98.53662109 107.89187012 -97.56542969 107.88647461 C-95.21876563 107.99031918 -93.24355522 108.33293471 -91 109 C-90.505 107.02 -90.505 107.02 -90 105 C-90 106.32 -90 107.64 -90 109 C-81.45643065 107.54414513 -73.40134207 105.57158981 -65.1875 102.8125 C-51.8017604 98.38701058 -51.8017604 98.38701058 -46 100 C-43.00461 102.25165991 -43.00180625 102.98735623 -42.4375 106.9375 C-42.79077303 115.62801642 -47.48366879 122.99120848 -53.625 128.875 C-63.25776961 136.78249744 -72.4468846 140.45982108 -85 140 C-87.82980308 139.57027223 -90.24979348 138.86848627 -93 138 C-100.89127689 136.60517382 -111.38759726 135.4345614 -118.67578125 139.48828125 C-120.64864402 141.22336019 -122.31629154 142.98705152 -124 145 C-125.32508493 146.34153102 -126.65648345 147.67692826 -128 149 C-122.8794305 167.22413867 -112.89084222 177.21697632 -98 188 C-98.60585937 187.2678125 -99.21171875 186.535625 -99.8359375 185.78125 C-101.68730074 183.40188064 -103.18576642 181.13704733 -104.625 178.5 C-105.02976563 177.7678125 -105.43453125 177.035625 -105.8515625 176.28125 C-108.2716301 171.4740409 -109.29720064 167.59618946 -109.625 162.1875 C-109.69976562 161.02605469 -109.77453125 159.86460937 -109.8515625 158.66796875 C-109.90054688 157.78753906 -109.94953125 156.90710938 -110 156 C-105.74659138 156 -103.59018547 158.42213679 -100.4375 161 C-99.81198242 161.50257324 -99.18646484 162.00514648 -98.54199219 162.52294922 C-97.27752533 163.53951317 -96.01529148 164.5588613 -94.75537109 165.58105469 C-92.43923446 167.45329198 -90.09218344 169.28551094 -87.75 171.125 C-72.03942125 183.77642315 -72.03942125 183.77642315 -69 190 C-69.07967205 192.78852185 -69.71310569 193.67867838 -71.5625 195.75 C-72.2740625 196.36875 -72.2740625 196.36875 -73 197 C-68.3746152 197.73879967 -63.93632408 198.12812774 -59.25390625 198.1328125 C-58.00416016 198.13410156 -56.75441406 198.13539063 -55.46679688 198.13671875 C-54.17837891 198.13285156 -52.88996094 198.12898437 -51.5625 198.125 C-50.27794922 198.12886719 -48.99339844 198.13273438 -47.66992188 198.13671875 C-41.33891368 198.1301953 -35.26101266 197.91365456 -29 197 C-27.06436466 196.8945091 -25.12595821 196.82636594 -23.1875 196.8125 C-22.27355469 196.79832031 -21.35960937 196.78414062 -20.41796875 196.76953125 C-18 197 -18 197 -15 199 C-28.95144377 200.88830317 -42.89409864 202.41663 -57 202 C-58.02996094 201.98324219 -59.05992188 201.96648437 -60.12109375 201.94921875 C-79.07820536 201.18216799 -96.86245114 195.52730795 -110.68359375 182.2109375 C-113.03920688 179.89184409 -113.03920688 179.89184409 -115.9921875 177.6484375 C-119.2759143 174.93867215 -121.45149475 171.8449821 -123.6875 168.25 C-124.07905273 167.63600342 -124.47060547 167.02200684 -124.87402344 166.3894043 C-127.42036514 162.27828063 -129.0721815 158.35664066 -130.3203125 153.671875 C-130.92403058 151.68239596 -130.92403058 151.68239596 -133.625 150.5625 C-134.40875 150.046875 -135.1925 149.53125 -136 149 C-136.41866051 146.55484445 -136.49993691 144.24498467 -136.46875 141.765625 C-137.09918218 138.48366925 -138.64635466 136.5762551 -140.64550781 133.95458984 C-143.05759364 130.47384739 -144.54121735 126.59707372 -146.125 122.6875 C-146.47046875 121.84445313 -146.8159375 121.00140625 -147.171875 120.1328125 C-152.79157172 106.2551645 -155.30449005 95.96370348 -149.6640625 81.46875 C-146.8908091 75.68788376 -143.08694128 70.89805572 -139 66 C-127.67484245 52.33446211 -119.46628499 38.78559752 -112.67529297 22.34570312 C-105.59162244 5.40102528 -96.40572564 -5.92399278 -79.640625 -13.9375 C-52.53557917 -24.84367229 -22.05620611 -18.22758166 0 0 Z " fill="#7B7B7B" transform="translate(164,34)"/>
<path d="M0 0 C2.99539 2.25165991 2.99819375 2.98735623 3.5625 6.9375 C3.20922697 15.62801642 -1.48366879 22.99120848 -7.625 28.875 C-17.25776961 36.78249744 -26.4468846 40.45982108 -39 40 C-41.82980308 39.57027223 -44.24979348 38.86848627 -47 38 C-54.84879654 36.61268245 -65.40416543 35.40974413 -72.640625 39.48828125 C-74.59161563 41.2270458 -76.30419442 43.0143501 -78 45 C-80.6875 47.5 -80.6875 47.5 -83 49 C-85.75 48.875 -85.75 48.875 -88 48 C-89.60725635 44.78548731 -89.05748185 41.56387464 -89 38 C-87.35 38.33 -85.7 38.66 -84 39 C-83.65388672 37.38544922 -83.65388672 37.38544922 -83.30078125 35.73828125 C-77.83330677 10.97099186 -77.83330677 10.97099186 -72 6 C-72 6.66 -72 7.32 -72 8 C-70.98631348 7.99214478 -70.98631348 7.99214478 -69.95214844 7.98413086 C-66.88477511 7.96331993 -63.81741667 7.95032671 -60.75 7.9375 C-59.15478516 7.92493164 -59.15478516 7.92493164 -57.52734375 7.91210938 C-56.50253906 7.90888672 -55.47773437 7.90566406 -54.421875 7.90234375 C-53.00793457 7.89448853 -53.00793457 7.89448853 -51.56542969 7.88647461 C-49.21876563 7.99031918 -47.24355522 8.33293471 -45 9 C-44.67 7.68 -44.34 6.36 -44 5 C-44 6.32 -44 7.64 -44 9 C-35.45643065 7.54414513 -27.40134207 5.57158981 -19.1875 2.8125 C-5.8017604 -1.61298942 -5.8017604 -1.61298942 0 0 Z " fill="#888888" transform="translate(118,134)"/>
<path d="M0 0 C0.66 0 1.32 0 2 0 C3.64864053 2.13281377 5.1494063 4.25046059 6.625 6.5 C7.07157959 7.18070557 7.51815918 7.86141113 7.97827148 8.56274414 C15.03148021 19.52671755 20.01655787 30.81484586 24.4375 43.0625 C30.58093017 59.96317496 39.78281684 72.91313911 51.1953125 86.640625 C68.58501261 107.78104474 68.58501261 107.78104474 68.25 119.875 C68.23453125 120.82117188 68.2190625 121.76734375 68.203125 122.7421875 C68 125 68 125 67 126 C62.24589041 126.75462057 59.53481171 126.98749646 55.42578125 124.34375 C50.26097212 119.85123608 46.29187176 114.92631699 42.5234375 109.23828125 C39.65574766 105.0249831 37.14327089 102.05031006 32 101 C32.144375 101.57105469 32.28875 102.14210938 32.4375 102.73046875 C37.43428533 124.55670467 29.10575861 144.74447369 17.62792969 163.20703125 C10.14472443 174.23026202 1.85440763 181.64080228 -11.01953125 185.625 C-13.37462413 186.07093475 -15.60323819 186.169232 -18 186.1875 C-18.845625 186.20167969 -19.69125 186.21585938 -20.5625 186.23046875 C-23.15408616 185.98543096 -24.77024992 185.30584901 -27 184 C-26.34 183.67 -25.68 183.34 -25 183 C-25.33 182.67 -25.66 182.34 -26 182 C-26 176.2745624 -24.28034852 173.33383959 -20.390625 169.21484375 C-16.4408574 165.55550024 -12.20148456 162.29459859 -7.92578125 159.03125 C-2.89024791 155.18047253 1.97904577 151.12501836 6.84545898 147.0637207 C7.81140991 146.26840942 7.81140991 146.26840942 8.796875 145.45703125 C9.36760742 144.98241455 9.93833984 144.50779785 10.52636719 144.01879883 C12 143 12 143 14 143 C14.93384523 154.72494563 11.51587606 164.08831839 4 173 C3.34 173.99 2.68 174.98 2 176 C15.33441727 164.26145714 28.86796865 141.20117328 30.13476562 123.07128906 C30.85253375 109.77314396 30.85253375 109.77314396 28 97 C26.01290003 95.67706133 26.01290003 95.67706133 24 95 C34.64236124 97.01022379 40.21213674 100.48218455 47 109 C47.680625 110.03125 48.36125 111.0625 49.0625 112.125 C51.85994076 116.27604113 55.07494788 121.03257031 60.0078125 122.6640625 C62.1182137 123.00249804 62.1182137 123.00249804 65 123 C64.72239097 106.89867636 53.03402891 93.84698189 43.0625 82.25 C32.12869254 69.21092526 25.16250657 54.71645592 19.0390625 38.96875 C14.32443144 26.87390801 9.50962145 15.77124642 1.06640625 5.71875 C0 4 0 4 0 0 Z " fill="#6F6F6F" transform="translate(174,46)"/>
<path d="M0 0 C0.66 0.99 1.32 1.98 2 3 C2.99 3.66 3.98 4.32 5 5 C4.37284905 9.38069616 3.85253643 12.96097123 1 16.4375 C-6.71951411 20.45808027 -15.54629774 20.31455744 -24.0625 20.25 C-25.08666016 20.25773437 -26.11082031 20.26546875 -27.16601562 20.2734375 C-36.0620228 20.2507001 -45.61057506 19.48785735 -53 14 C-54.73437807 11.72820901 -55.79094476 9.61961969 -57 7 C-43.19021361 -7.66694554 -17.20555774 -10.86666805 0 0 Z " fill="#F2B30C" transform="translate(156,91)"/>
<path d="M0 0 C0.33 0.66 0.66 1.32 1 2 C8.59 2 16.18 2 24 2 C24.495 2.99 24.495 2.99 25 4 C24.030625 4.61875 23.06125 5.2375 22.0625 5.875 C18.97164638 7.65678846 18.97164638 7.65678846 18 10 C17.22630959 17.42742789 19.90620964 23.85931446 24 30 C20.3858909 30.88422863 16.98864714 31.05614592 13.27661133 31.0871582 C7.53500601 31.19116064 2.78961818 31.28995512 -1.6875 35.3125 C-2.81929602 36.51627427 -3.92696535 37.74356402 -5 39 C-7.6875 41.5 -7.6875 41.5 -10 43 C-12.75 42.875 -12.75 42.875 -15 42 C-16.60725635 38.78548731 -16.05748185 35.56387464 -16 32 C-14.35 32.33 -12.7 32.66 -11 33 C-10.76925781 31.92363281 -10.53851563 30.84726563 -10.30078125 29.73828125 C-5.58178757 8.37268136 -5.58178757 8.37268136 0 0 Z " fill="#F368B3" transform="translate(45,140)"/>
<path d="M0 0 C4.62213616 2.97996834 8.91543441 6.22779092 13.1875 9.6875 C13.84169922 10.21569336 14.49589844 10.74388672 15.16992188 11.28808594 C16.49213105 12.35632238 17.81359489 13.42548209 19.13427734 14.49560547 C20.80590655 15.84349596 22.48761715 17.17683521 24.17578125 18.50390625 C37.73628057 29.28853572 37.73628057 29.28853572 39.8671875 35.546875 C40 38 40 38 38.87890625 39.78125 C34.98876013 42.30458803 30.4276015 41.60508614 26 41 C16.87656942 38.07182614 8.79583735 31.63044078 4.0625 23.3125 C3.33849523 21.89303545 2.65030739 20.45470368 2 19 C1.64164063 18.22527344 1.28328125 17.45054687 0.9140625 16.65234375 C-0.17913264 13.48020913 -0.456746 10.59404157 -0.6875 7.25 C-0.77386719 6.10015625 -0.86023437 4.9503125 -0.94921875 3.765625 C-0.96597656 2.85296875 -0.98273437 1.9403125 -1 1 C-0.67 0.67 -0.34 0.34 0 0 Z " fill="#F7B506" transform="translate(55,189)"/>
<path d="M0 0 C0.82679287 10.38084382 -1.59431407 20.06318372 -8.296875 28.1875 C-13.84195338 34.08868433 -19.42601738 39.608344 -27.83203125 40.328125 C-29.14558594 40.30234375 -30.45914063 40.2765625 -31.8125 40.25 C-32.49248047 40.24484375 -33.17246094 40.2396875 -33.87304688 40.234375 C-38.84493731 40.15506269 -38.84493731 40.15506269 -40 39 C-40 33.2745624 -38.28034852 30.33383959 -34.390625 26.21484375 C-30.4408574 22.55550024 -26.20148456 19.29459859 -21.92578125 16.03125 C-16.89024791 12.18047253 -12.02095423 8.12501836 -7.15454102 4.0637207 C-6.18859009 3.26840942 -6.18859009 3.26840942 -5.203125 2.45703125 C-4.63239258 1.98241455 -4.06166016 1.50779785 -3.47363281 1.01879883 C-2 0 -2 0 0 0 Z " fill="#F9B705" transform="translate(188,189)"/>
<path d="M0 0 C7.34390816 0.1044865 16.00596507 2.17064338 22.125 6.25 C25.125 10.35 25.125 10.35 25.125 13.25 C19.43676969 13.53996402 13.74830174 13.82453118 8.05957031 14.10449219 C6.13176516 14.20008053 4.20402757 14.29704316 2.27636719 14.39550781 C-9.45339999 14.99359168 -21.12856217 15.40145837 -32.875 15.25 C-32.09375 10.46191406 -32.09375 10.46191406 -30.125 8.5546875 C-20.22823882 2.2661205 -11.53670565 0.74430359 0 0 Z " fill="#F8B605" transform="translate(133.875,84.75)"/>
<path d="M0 0 C0.33 0 0.66 0 1 0 C1.85367389 7.34159544 -1.12012834 13.38338211 -4 20 C-4.31646484 20.73927734 -4.63292969 21.47855469 -4.95898438 22.24023438 C-12.32486593 39.25892832 -20.83297195 54.32020981 -38.44921875 62.01953125 C-42.4114837 63.5425458 -45.74933573 64.15510164 -50 64.1875 C-50.845625 64.20167969 -51.69125 64.21585937 -52.5625 64.23046875 C-55.15408616 63.98543096 -56.77024992 63.30584901 -59 62 C-55.67948212 60.89316071 -53.11936549 60.92996755 -49.625 60.875 C-39.58180289 60.21030029 -30.36247214 55.64757335 -23.59765625 48.1015625 C-14.27515485 35.83871225 -5.77095231 20.17956932 -2.53515625 5.03125 C-2 3 -2 3 0 0 Z " fill="#7D7D7D" transform="translate(206,168)"/>
<path d="M0 0 C15.53856987 -2.98571694 35.08862181 3.73907261 48 12 C51.09743141 14.22416803 54.05449081 16.58026121 57 19 C57.886875 19.639375 58.77375 20.27875 59.6875 20.9375 C62.99859194 23.89063606 65.44847713 27.38753463 68 31 C67.34 31.66 66.68 32.32 66 33 C65.57332031 32.46632812 65.14664063 31.93265625 64.70703125 31.3828125 C51.23983296 15.33324423 33.41011834 5.99018252 12.58349609 3.73876953 C7.72615761 3.33455677 2.87193513 3.12195082 -2 3 C-1.34 2.01 -0.68 1.02 0 0 Z " fill="#747474" transform="translate(107,15)"/>
<path d="M0 0 C10.64866285 2.01141409 16.20168297 5.48745217 23 14 C24.35162508 15.98768394 25.68693567 17.9866347 27 20 C28.94604867 22.38173121 30.95845375 24.69985789 33 27 C26.29511607 23.67633436 22.43245159 20.51663999 18.44140625 14.19140625 C16.19343417 10.77375765 13.88620854 7.54871521 9.8515625 6.375 C9.24054688 6.25125 8.62953125 6.1275 8 6 C8.144375 6.57105469 8.28875 7.14210937 8.4375 7.73046875 C10.02990984 14.68620341 10.96182375 21.88457272 10 29 C9.01 29.66 8.02 30.32 7 31 C6.95101562 29.82824219 6.90203125 28.65648437 6.8515625 27.44921875 C6.77186842 14.4652307 6.77186842 14.4652307 4 2 C2.01500186 0.68079223 2.01500186 0.68079223 0 0 Z " fill="#848484" transform="translate(198,141)"/>
<path d="M0 0 C-0.78375 0.598125 -1.5675 1.19625 -2.375 1.8125 C-5.14574323 3.91085249 -5.14574323 3.91085249 -7 7 C-7.42395327 12.40540418 -6.44624241 16.84776142 -5 22 C-8.95349203 21.82029582 -10.57093489 21.4403563 -13.375 18.5625 C-15.49588125 13.91287572 -15.84755998 10.03346848 -15 5 C-11.55099232 -0.30616566 -5.92494513 -1.74263092 0 0 Z " fill="#FAF5F9" transform="translate(70,143)"/>
<path d="M0 0 C10.20614057 7.32179649 18.95007573 21.23440973 23 33 C23.4677781 36.73759335 23.55293742 40.26942224 23 44 C21.47048974 45.52951026 20.06639586 45.3539351 17.9375 45.5 C12.61745518 45.5 10.10816291 43.14135303 6.43359375 39.53125 C5.96050781 39.0259375 5.48742187 38.520625 5 38 C5.33 37.34 5.66 36.68 6 36 C6.556875 36.61875 7.11375 37.2375 7.6875 37.875 C10.89224783 40.81990341 13.46516813 41.93178525 17.8125 42.125 C18.534375 42.08375 19.25625 42.0425 20 42 C19.76709328 28.49140997 11.34415393 17.04209223 3 7 C2.12601563 6.21689453 2.12601563 6.21689453 1.234375 5.41796875 C0 4 0 4 0 0 Z " fill="#646464" transform="translate(219,127)"/>
<path d="M0 0 C0.69512695 0.0707373 1.39025391 0.14147461 2.10644531 0.21435547 C10.33535666 0.98370324 18.48873771 1.15062956 26.75 1.125 C28.01199219 1.12886719 29.27398437 1.13273438 30.57421875 1.13671875 C36.82449197 1.13016023 42.81834533 0.89700051 49 0 C50.93563534 -0.1054909 52.87404179 -0.17363406 54.8125 -0.1875 C56.18341797 -0.20876953 56.18341797 -0.20876953 57.58203125 -0.23046875 C60 0 60 0 63 2 C18.85924967 7.97437225 18.85924967 7.97437225 2 3 C1.34 2.01 0.68 1.02 0 0 Z " fill="#838383" transform="translate(86,231)"/>
<path d="M0 0 C3.70013538 1.63371133 6.63559421 3.95388559 9.8125 6.4375 C14.07276788 9.70349086 17.95577618 12.15691822 23 14 C24.38129388 14.69598012 25.75610849 15.40493253 27.125 16.125 C30.06572297 17.62396774 32.69143772 18.58642971 36 19 C36 19.66 36 20.32 36 21 C37.32 21.33 38.64 21.66 40 22 C25.11312737 21.63770885 11.42180963 13.99843281 1.14453125 3.48046875 C0 2 0 2 0 0 Z " fill="#696969" transform="translate(50,211)"/>
<path d="M0 0 C0 4.2306688 -1.7628353 5.79223592 -4.52734375 8.86328125 C-11.48026285 14.87156995 -20.78010878 19.11722644 -30 19.1875 C-30.845625 19.20167969 -31.69125 19.21585938 -32.5625 19.23046875 C-35.15408616 18.98543096 -36.77024992 18.30584901 -39 17 C-35.67948212 15.89316071 -33.11936549 15.92996755 -29.625 15.875 C-19.01076664 15.17250679 -10.29181187 10.31176733 -3.26953125 2.3828125 C-2 1 -2 1 0 0 Z " fill="#74684A" transform="translate(186,213)"/>
<path d="M0 0 C2.4375 0.875 2.4375 0.875 4.4375 3.875 C3.98466981 10.32783019 3.98466981 10.32783019 1.4375 12.875 C-1.0625 13.125 -1.0625 13.125 -3.5625 12.875 C-5.5625 10.875 -5.5625 10.875 -5.875 6.9375 C-5.79910758 4.32869811 -5.69350187 3.10252957 -4.375 0.8125 C-2.5625 -0.125 -2.5625 -0.125 0 0 Z " fill="#EFEFEF" transform="translate(84.5625,81.125)"/>
<path d="M0 0 C0.99 0.33 1.98 0.66 3 1 C2.67 3.31 2.34 5.62 2 8 C1.505 6.02 1.505 6.02 1 4 C-0.10811035 4.06058594 -1.2162207 4.12117188 -2.35791016 4.18359375 C-6.53625891 4.41103046 -10.71486303 4.63345308 -14.89355469 4.85449219 C-16.68952455 4.95016595 -18.48542603 5.04713363 -20.28125 5.14550781 C-30.86757581 5.72444751 -41.39432773 6.15891954 -52 6 C-51.42655063 8.86724686 -51.1385485 9.8614515 -49 12 C-53.26205106 11.52643877 -55.28693793 9.15301808 -58 6 C-58.8125 3.6875 -58.8125 3.6875 -59 2 C-58.34 2 -57.68 2 -57 2 C-57 2.99 -57 3.98 -57 5 C-55.64358398 4.90912109 -55.64358398 4.90912109 -54.25976562 4.81640625 C-35.82002691 3.60142093 -17.49133557 2.64721549 1 3 C0.505 1.515 0.505 1.515 0 0 Z " fill="#8B6622" transform="translate(158,95)"/>
<path d="M0 0 C2.5 -0.3125 2.5 -0.3125 5 0 C7.60704898 2.60704898 7.23905333 4.47338241 7.265625 8.02734375 C7 10 7 10 5 13 C2.5 13.3125 2.5 13.3125 0 13 C-2.60704898 10.39295102 -2.23905333 8.52661759 -2.265625 4.97265625 C-2 3 -2 3 0 0 Z " fill="#F4F4F4" transform="translate(163,75)"/>
<path d="M0 0 C1.9158006 2.87370089 2.92523879 5.34495857 4.125 8.5625 C6.41154927 14.1967217 9.37668012 18.44885021 13.328125 23.0390625 C15 25 15 25 16 27 C15.34 27.66 14.68 28.32 14 29 C7.65288731 22.27731851 1.97804494 14.86220136 -1 6 C-0.625 2.6875 -0.625 2.6875 0 0 Z " fill="#7C7C7C" transform="translate(35,184)"/>
<path d="M0 0 C2.59928981 2.48627721 3.94070284 3.85416958 4.1328125 7.56640625 C4.13023437 8.55511719 4.12765625 9.54382813 4.125 10.5625 C4.12886719 12.04943359 4.12886719 12.04943359 4.1328125 13.56640625 C4 16 4 16 3 17 C-1.25029014 17.81843661 -4.69384826 17.85931035 -8.375 15.4375 C-10.34236078 13.69498045 -12.20427557 11.91804899 -14 10 C-13.67 9.34 -13.34 8.68 -13 8 C-12.1646875 8.928125 -12.1646875 8.928125 -11.3125 9.875 C-8.10775217 12.81990341 -5.53483187 13.93178525 -1.1875 14.125 C-0.1046875 14.063125 -0.1046875 14.063125 1 14 C0.85831863 12.56208484 0.71148957 11.1246763 0.5625 9.6875 C0.48128906 8.88699219 0.40007812 8.08648437 0.31640625 7.26171875 C0.04734307 4.83912821 0.04734307 4.83912821 -1 2 C-0.67 1.34 -0.34 0.68 0 0 Z " fill="#585858" transform="translate(238,155)"/>
<path d="M0 0 C0 0.33 0 0.66 0 1 C-0.71285156 1.04898437 -1.42570312 1.09796875 -2.16015625 1.1484375 C-7.71128071 1.58176888 -12.67024656 2.31691997 -18 4 C-20.09889951 4.60200994 -22.20361615 5.18395754 -24.3125 5.75 C-25.33988281 6.03359375 -26.36726563 6.3171875 -27.42578125 6.609375 C-28.70001953 6.80273438 -28.70001953 6.80273438 -30 7 C-30.66 6.34 -31.32 5.68 -32 5 C-21.71532408 -0.80161206 -11.39645625 -0.23551804 0 0 Z " fill="#6A6A6A" transform="translate(116,16)"/>
<path d="M0 0 C3.22895652 2.15263768 3.56008384 2.74915267 4.82421875 6.2109375 C5.13037109 7.04367188 5.43652344 7.87640625 5.75195312 8.734375 C6.06068359 9.60578125 6.36941406 10.4771875 6.6875 11.375 C7.00783203 12.23867187 7.32816406 13.10234375 7.65820312 13.9921875 C9.09536195 17.96352617 10 20.70924762 10 25 C9.34 25 8.68 25 8 25 C6.65574747 21.58752916 5.32652831 18.16939561 4 14.75 C3.6184375 13.78191406 3.236875 12.81382813 2.84375 11.81640625 C2.4828125 10.88183594 2.121875 9.94726562 1.75 8.984375 C1.41484375 8.12553711 1.0796875 7.26669922 0.734375 6.38183594 C0 4 0 4 0 0 Z " fill="#6B6B6B" transform="translate(189,70)"/>
<path d="M0 0 C-9.38695104 1.33418593 -18.49095101 2.32417212 -28 2 C-28 1.34 -28 0.68 -28 0 C-5.51465416 -3.67643611 -5.51465416 -3.67643611 0 0 Z " fill="#949494" transform="translate(149,233)"/>
<path d="M0 0 C0.33 0 0.66 0 1 0 C0.46585373 5.72514527 -1.16048662 10.23868689 -3.5625 15.4375 C-3.89185547 16.16904297 -4.22121094 16.90058594 -4.56054688 17.65429688 C-5.36577106 19.43979399 -6.18177846 21.22042155 -7 23 C-7.66 22.67 -8.32 22.34 -9 22 C-8.32123256 17.21091862 -6.45906236 13.1244525 -4.5 8.75 C-4.01853516 7.65171875 -4.01853516 7.65171875 -3.52734375 6.53125 C-1.14218231 1.14218231 -1.14218231 1.14218231 0 0 Z " fill="#727272" transform="translate(52,56)"/>
<path d="M0 0 C0.33 0 0.66 0 1 0 C1.90773356 7.80650864 -1.22656331 16.01846208 -5.66796875 22.39453125 C-6.10753906 22.92433594 -6.54710937 23.45414063 -7 24 C-8.33428077 19.9971577 -7.22045881 18.47701935 -5.625 14.625 C-3.72728481 10.0455234 -3.72728481 10.0455234 -2.4609375 5.2734375 C-2 3 -2 3 0 0 Z " fill="#6F6F6F" transform="translate(206,168)"/>
<path d="M0 0 C7.68619438 -1.47689272 16.40270475 0.77392353 24 2 C20.58761477 4.27492349 19.63955735 4.19555565 15.67578125 3.9765625 C14.64775391 3.925 13.61972656 3.8734375 12.56054688 3.8203125 C11.48869141 3.75585938 10.41683594 3.69140625 9.3125 3.625 C7.68731445 3.53992188 7.68731445 3.53992188 6.02929688 3.453125 C3.35219993 3.31160446 0.67603424 3.16018849 -2 3 C-1.34 2.01 -0.68 1.02 0 0 Z " fill="#8D8D8D" transform="translate(107,15)"/>
<path d="M0 0 C2.125 0.9375 2.125 0.9375 4 2 C3.18015625 2.47050781 2.3603125 2.94101562 1.515625 3.42578125 C0.43796875 4.04839844 -0.6396875 4.67101562 -1.75 5.3125 C-2.81734375 5.92738281 -3.8846875 6.54226562 -4.984375 7.17578125 C-7.93973261 8.8893791 -7.93973261 8.8893791 -10.265625 10.73046875 C-12 12 -12 12 -14 12 C-12.50819618 8.16030039 -10.37986478 6.57720591 -7 4.3125 C-6.113125 3.71050781 -5.22625 3.10851562 -4.3125 2.48828125 C-2 1 -2 1 0 0 Z " fill="#727272" transform="translate(82,21)"/>
<path d="M0 0 C0 3.71884228 -0.8740066 4.36147729 -3.3125 7.0625 C-3.92738281 7.75472656 -4.54226562 8.44695312 -5.17578125 9.16015625 C-7 11 -7 11 -10 13 C-12.6875 12.625 -12.6875 12.625 -15 12 C-13 10 -13 10 -10.875 8.8125 C-6.87697107 6.2920035 -3.4960305 3.16637999 0 0 Z " fill="#6E6C67" transform="translate(186,213)"/>
<path d="M0 0 C0.66 0 1.32 0 2 0 C5.06201917 3.79690377 5.45743018 7.31359415 5.7890625 12.01171875 C5.89028751 14.07253947 5.89028751 14.07253947 7 16 C9.52733235 16.65555119 9.52733235 16.65555119 12 17 C11.34 18.32 10.68 19.64 10 21 C5.86561857 19.06475763 5.86561857 19.06475763 4 17 C3.43623626 14.42889566 3.31280654 12.06703095 3.30078125 9.4375 C2.93775284 6.49555547 1.80803844 5.28986399 0 3 C0 2.01 0 1.02 0 0 Z " fill="#626262" transform="translate(24,166)"/>
<path d="M0 0 C2.5864584 2.5864584 3.62271883 5.2938548 5.125 8.625 C5.66382813 9.81351563 6.20265625 11.00203125 6.7578125 12.2265625 C7.37269531 13.59941406 7.37269531 13.59941406 8 15 C7.34 15.66 6.68 16.32 6 17 C4.79715599 14.92426919 3.61294299 12.84116905 2.4375 10.75 C1.92413086 9.87021484 1.92413086 9.87021484 1.40039062 8.97265625 C-1.06382218 4.54205141 -1.06382218 4.54205141 -0.71484375 1.578125 C-0.47894531 1.05734375 -0.24304688 0.5365625 0 0 Z " fill="#777777" transform="translate(199,94)"/>
<path d="M0 0 C0.66 0 1.32 0 2 0 C1.40683971 3.9057324 -0.48621905 6.21803586 -2.9375 9.25 C-3.64777344 10.14203125 -4.35804687 11.0340625 -5.08984375 11.953125 C-5.72019531 12.62859375 -6.35054687 13.3040625 -7 14 C-7.66 14 -8.32 14 -9 14 C-8.40683971 10.0942676 -6.51378095 7.78196414 -4.0625 4.75 C-3.35222656 3.85796875 -2.64195313 2.9659375 -1.91015625 2.046875 C-1.27980469 1.37140625 -0.64945313 0.6959375 0 0 Z " fill="#6F6F6F" transform="translate(30,94)"/>
<path d="M0 0 C4.29 1.32 8.58 2.64 13 4 C13 4.66 13 5.32 13 6 C14.32 6.33 15.64 6.66 17 7 C9.87391001 6.70245971 4.3327492 5.28874656 -2 2 C-1.34 1.34 -0.68 0.68 0 0 Z " fill="#5A5958" transform="translate(73,226)"/>
<path d="M0 0 C3 3 3 3 3.3984375 6.06640625 C3.39070312 7.22011719 3.38296875 8.37382812 3.375 9.5625 C3.38273438 10.71878906 3.39046875 11.87507812 3.3984375 13.06640625 C3.26695312 14.03449219 3.13546875 15.00257813 3 16 C2.01 16.66 1.02 17.32 0 18 C0 12.06 0 6.12 0 0 Z " fill="#9A9A9A" transform="translate(205,154)"/>
<path d="M0 0 C2.739898 2.739898 2.8900714 5.16819116 3.6875 8.9375 C3.95949219 10.18402344 4.23148438 11.43054688 4.51171875 12.71484375 C5 16 5 16 4 19 C2 18 2 18 0.875 15.125 C-0.45264471 10.15670455 -0.16599322 5.09968052 0 0 Z " fill="#898989" transform="translate(11,126)"/>
<path d="M0 0 C4.38889325 0.66498383 7.9811485 2.18757677 12 4 C12 4.66 12 5.32 12 6 C9 7 9 7 6.73828125 6.00390625 C5.93777344 5.52824219 5.13726562 5.05257812 4.3125 4.5625 C3.50425781 4.08941406 2.69601563 3.61632812 1.86328125 3.12890625 C1.24839844 2.75636719 0.63351563 2.38382813 0 2 C0 1.34 0 0.68 0 0 Z " fill="#66635C" transform="translate(61,221)"/>
<path d="M0 0 C5.02085501 2.37095931 6.82340081 5.03735386 9 10 C8.09765625 12.22265625 8.09765625 12.22265625 7 14 C5.82807953 12.04480616 4.6626071 10.0857461 3.5 8.125 C2.8503125 7.03445312 2.200625 5.94390625 1.53125 4.8203125 C0 2 0 2 0 0 Z " fill="#707070" transform="translate(230,143)"/>
<path d="M0 0 C0.66 0 1.32 0 2 0 C1.46515599 5.34844008 -0.46690767 9.35796103 -3 14 C-4.1484375 12.328125 -4.1484375 12.328125 -5 10 C-4.1015625 7.421875 -4.1015625 7.421875 -2.625 4.75 C-2.14289062 3.85796875 -1.66078125 2.9659375 -1.1640625 2.046875 C-0.77992187 1.37140625 -0.39578125 0.6959375 0 0 Z " fill="#787878" transform="translate(57,44)"/>
<path d="M0 0 C2.29542991 2.24629226 4.44517724 4.5854289 6.5625 7 C7.16191406 7.680625 7.76132813 8.36125 8.37890625 9.0625 C10 11 10 11 12 14 C2.98753117 9.840399 2.98753117 9.840399 0.625 5.4375 C0 3 0 3 0 0 Z " fill="#767676" transform="translate(219,154)"/>
<path d="M0 0 C5.65394631 -0.34615998 9.03006806 0.56574762 14 3 C11 5 11 5 8.08203125 4.5390625 C7.00308594 4.23742187 5.92414063 3.93578125 4.8125 3.625 C3.72582031 3.32851563 2.63914063 3.03203125 1.51953125 2.7265625 C0.68808594 2.48679687 -0.14335938 2.24703125 -1 2 C-0.67 1.34 -0.34 0.68 0 0 Z " fill="#616161" transform="translate(128,18)"/>
<path d="M0 0 C4.55015893 1.51671964 6.50057264 5.16891053 9 9 C8.34 9.66 7.68 10.32 7 11 C5.82439821 9.73742767 4.65977135 8.46462916 3.5 7.1875 C2.8503125 6.47980469 2.200625 5.77210938 1.53125 5.04296875 C0 3 0 3 0 0 Z " fill="#757575" transform="translate(42,202)"/>
<path d="M0 0 C0.66 0 1.32 0 2 0 C2 0.99 2 1.98 2 3 C3.98 3 5.96 3 8 3 C7.95875 3.78375 7.9175 4.5675 7.875 5.375 C7.71271266 8.16116119 7.71271266 8.16116119 10 10 C5.73794894 9.52643877 3.71306207 7.15301808 1 4 C0.1875 1.6875 0.1875 1.6875 0 0 Z " fill="#AF903F" transform="translate(99,97)"/>
<path d="M0 0 C1.91731918 0.11455681 3.8338675 0.24206258 5.75 0.375 C7.35101563 0.47941406 7.35101563 0.47941406 8.984375 0.5859375 C11.80206432 0.9728223 13.5830366 1.55686166 16 3 C5.92395139 4.42689142 5.92395139 4.42689142 2 3 C1.34 2.01 0.68 1.02 0 0 Z " fill="#737373" transform="translate(86,231)"/>
<path d="M0 0 C4.39333304 1.19818174 7.18461404 2.3504256 10 6 C10.75 8.75 10.75 8.75 11 11 C10.34 11 9.68 11 9 11 C7.59765625 9.35546875 7.59765625 9.35546875 6.0625 7.1875 C4.19452718 4.56469417 2.34130807 2.21550645 0 0 Z " fill="#676767" transform="translate(209,146)"/>
<path d="M0 0 C0.721875 0.61875 1.44375 1.2375 2.1875 1.875 C4.78381938 3.83666353 6.94671666 4.95316 10 6 C10 6.66 10 7.32 10 8 C11.98 8 13.96 8 16 8 C16 8.33 16 8.66 16 9 C9.3010989 9.83736264 9.3010989 9.83736264 5.6875 7.51171875 C3.65017875 5.75452917 1.74373155 4.04981209 0 2 C0 1.34 0 0.68 0 0 Z " fill="#535353" transform="translate(224,163)"/>
<path d="M0 0 C0.33 0 0.66 0 1 0 C1.28125 2.19921875 1.28125 2.19921875 1 5 C-0.96875 7.45703125 -0.96875 7.45703125 -3.5 9.8125 C-4.3353125 10.60269531 -5.170625 11.39289063 -6.03125 12.20703125 C-6.6809375 12.79871094 -7.330625 13.39039063 -8 14 C-8.66 13.67 -9.32 13.34 -10 13 C-9.44570312 12.39671875 -8.89140625 11.7934375 -8.3203125 11.171875 C-7.59585938 10.37265625 -6.87140625 9.5734375 -6.125 8.75 C-5.04605469 7.56664062 -5.04605469 7.56664062 -3.9453125 6.359375 C-2.23064517 4.27973832 -1.07019127 2.45580733 0 0 Z " fill="#392C17" transform="translate(184,209)"/>
<path d="M0 0 C0.33 0.99 0.66 1.98 1 3 C-0.26257233 4.17560179 -1.53537084 5.34022865 -2.8125 6.5 C-3.87404297 7.47453125 -3.87404297 7.47453125 -4.95703125 8.46875 C-7 10 -7 10 -10 10 C-8.90033225 8.70450101 -7.79508199 7.41373929 -6.6875 6.125 C-6.07261719 5.40570313 -5.45773438 4.68640625 -4.82421875 3.9453125 C-3 2 -3 2 0 0 Z " fill="#E0AA12" transform="translate(159,211)"/>
<path d="M0 0 C0.66 0 1.32 0 2 0 C1.52354792 4.28806873 0.34097516 6.26647487 -3 9 C-3.66 9 -4.32 9 -5 9 C-3.7580393 5.56072421 -2.44259716 2.74792181 0 0 Z " fill="#717171" transform="translate(190,205)"/>
<path d="M0 0 C3.34944548 5.02416822 3.09834146 9.09951257 3 15 C2.67 15 2.34 15 2 15 C2 13.35 2 11.7 2 10 C1.34 10 0.68 10 0 10 C-0.74926071 6.33694766 -1.2380014 3.57644848 0 0 Z " fill="#5C5C5C" transform="translate(204,144)"/>
<path d="M0 0 C0 0.66 0 1.32 0 2 C-3.97193147 5.12940055 -7.04230204 5.29162929 -12 5 C-4.5 0 -4.5 0 0 0 Z " fill="#4E473B" transform="translate(173,225)"/>
<path d="M0 0 C5.61 0 11.22 0 17 0 C17 0.33 17 0.66 17 1 C15.84371094 1.09087891 15.84371094 1.09087891 14.6640625 1.18359375 C13.15972656 1.30927734 13.15972656 1.30927734 11.625 1.4375 C10.12839844 1.55931641 10.12839844 1.55931641 8.6015625 1.68359375 C6.02072387 1.84965626 6.02072387 1.84965626 4 3 C2.32345271 2.72057545 0.65391846 2.39171753 -1 2 C-0.67 1.34 -0.34 0.68 0 0 Z " fill="#5D5D5D" transform="translate(99,16)"/>
<path d="M0 0 C2.475 0.495 2.475 0.495 5 1 C5 1.66 5 2.32 5 3 C4.01 3 3.02 3 2 3 C2 5.31 2 7.62 2 10 C0 8 0 8 -0.1953125 6.0546875 C-0.13020833 4.03645833 -0.06510417 2.01822917 0 0 Z " fill="#E386BB" transform="translate(29,172)"/>
<path d="M0 0 C0 4.38968456 -2.12805101 5.76905739 -5 9 C-5.66 8.67 -6.32 8.34 -7 8 C-3.375 2.25 -3.375 2.25 0 0 Z " fill="#5D5D5E" transform="translate(186,213)"/>
<path d="M0 0 C0.33 0.66 0.66 1.32 1 2 C1.66 2 2.32 2 3 2 C3.66 3.98 4.32 5.96 5 8 C4.34 8.66 3.68 9.32 3 10 C0.96564469 6.27034861 0 4.33094958 0 0 Z " fill="#6A6A6A" transform="translate(14,143)"/>
<path d="M0 0 C0.66 0 1.32 0 2 0 C2.33 0.66 2.66 1.32 3 2 C5.52733235 2.65555119 5.52733235 2.65555119 8 3 C7.34 4.32 6.68 5.64 6 7 C3 5.1875 3 5.1875 0 3 C0 2.01 0 1.02 0 0 Z " fill="#6E6D6E" transform="translate(28,180)"/>
<path d="M0 0 C0.66 0.99 1.32 1.98 2 3 C1.01 4.98 0.02 6.96 -1 9 C-1.66 8.67 -2.32 8.34 -3 8 C-2.45276317 4.62537285 -1.9451 2.91765 0 0 Z " fill="#666666" transform="translate(46,70)"/>
<path d="M0 0 C0.66 0.33 1.32 0.66 2 1 C-0.31 3.64 -2.62 6.28 -5 9 C-5.33 7.68 -5.66 6.36 -6 5 C-4.02 3.35 -2.04 1.7 0 0 Z " fill="#DCA715" transform="translate(107,91)"/>
<path d="M0 0 C2.35981813 0.93578995 4.69631264 1.93347808 7 3 C7 3.33 7 3.66 7 4 C1.46153846 4.36923077 1.46153846 4.36923077 -0.875 2.5 C-1.24625 2.005 -1.6175 1.51 -2 1 C-1.34 0.67 -0.68 0.34 0 0 Z " fill="#504A43" transform="translate(73,226)"/>
<path d="M0 0 C0.33 0 0.66 0 1 0 C1.33 2.64 1.66 5.28 2 8 C-0.86177057 9.43088528 -2.93375773 8.59991697 -6 8 C-6 7.67 -6 7.34 -6 7 C-4.35 6.67 -2.7 6.34 -1 6 C-0.67 4.02 -0.34 2.04 0 0 Z " fill="#868686" transform="translate(240,163)"/>
<path d="M0 0 C0.33 0.99 0.66 1.98 1 3 C1.66 3 2.32 3 3 3 C3.33 4.98 3.66 6.96 4 9 C3.01 8.67 2.02 8.34 1 8 C0.67 5.36 0.34 2.72 0 0 Z " fill="#7F7F7F" transform="translate(12,136)"/>
</svg>
